  <svg
    width="48"
    height="48"
    viewBox="0 0 48 48"
    fill="none"
    xmlns="http://www.w3.org/2000/svg"
  >
    <g id="Icon / Camera">
      <path
        id="icon"
        fill-rule="evenodd"
        clip-rule="evenodd"
        d="M17.9989 6C17.4974 6 17.029 6.25065 16.7508 6.66795L14.1961 10.5H9C7.80653 10.5 6.66193 10.9741 5.81802 11.818C4.97411 12.6619 4.5 13.8065 4.5 15V36C4.5 37.1935 4.97411 38.3381 5.81802 39.182C6.66193 40.0259 7.80653 40.5 9 40.5H39C40.1935 40.5 41.3381 40.0259 42.182 39.182C43.0259 38.3381 43.5 37.1935 43.5 36V15C43.5 13.8065 43.0259 12.6619 42.182 11.818C41.3381 10.9741 40.1935 10.5 39 10.5H33.8017L31.247 6.66795C30.9688 6.25065 30.5004 6 29.9989 6H17.9989ZM16.247 12.8321L18.8017 9H29.1961L31.7508 12.8321C32.029 13.2493 32.4974 13.5 32.9989 13.5H39C39.3978 13.5 39.7794 13.658 40.0607 13.9393C40.342 14.2206 40.5 14.6022 40.5 15V36C40.5 36.3978 40.342 36.7794 40.0607 37.0607C39.7794 37.342 39.3978 37.5 39 37.5H9C8.60218 37.5 8.22064 37.342 7.93934 37.0607C7.65804 36.7794 7.5 36.3978 7.5 36V15C7.5 14.6022 7.65804 14.2206 7.93934 13.9393C8.22064 13.658 8.60218 13.5 9 13.5H14.9989C15.5004 13.5 15.9688 13.2493 16.247 12.8321ZM18.75 24.75C18.75 21.8505 21.1005 19.5 24 19.5C26.8995 19.5 29.25 21.8505 29.25 24.75C29.25 27.6495 26.8995 30 24 30C21.1005 30 18.75 27.6495 18.75 24.75ZM24 16.5C19.4437 16.5 15.75 20.1937 15.75 24.75C15.75 29.3064 19.4437 33 24 33C28.5564 33 32.25 29.3064 32.25 24.75C32.25 20.1937 28.5564 16.5 24 16.5Z"
        fill="#2491E7"
      />
    </g>
  </svg>