  <svg
    width="48"
    height="48"
    viewBox="0 0 48 48"
    fill="none"
    xmlns="http://www.w3.org/2000/svg"
  >
    <g id="Icon / Home">
      <path
        id="icon"
        fill-rule="evenodd"
        clip-rule="evenodd"
        d="M22.8823 7.37906C23.4759 6.85139 24.3779 6.8779 24.9395 7.43952L40.0607 22.5614C40.342 22.8427 40.5 23.2243 40.5 23.6221V39.3802C40.5 40.2087 39.8284 40.8803 39 40.8803H31.5V27.3801C31.5 24.8947 29.4853 22.8798 27 22.8798H21C18.5147 22.8798 16.5 24.8947 16.5 27.3801V40.8803H9C8.17157 40.8803 7.5 40.2087 7.5 39.3802V21.7266C7.5 21.2981 7.68322 20.8901 8.00345 20.6054L22.8823 7.37906ZM19.5 40.8803H28.5V27.3801C28.5 26.5516 27.8284 25.88 27 25.88H21C20.1716 25.88 19.5 26.5516 19.5 27.3801V40.8803ZM27.0609 5.3181C25.3761 3.63323 22.6701 3.5537 20.8892 5.13672L6.01036 18.3631C5.04966 19.2171 4.5 20.4411 4.5 21.7266V39.3802C4.5 41.8656 6.51472 43.8805 9 43.8805H39C41.4853 43.8805 43.5 41.8656 43.5 39.3802V23.6221C43.5 22.4286 43.0259 21.2839 42.182 20.44L27.0609 5.3181Z"
        fill="#2491E7"
      />
    </g>
  </svg>