  <svg
    width="48"
    height="48"
    viewBox="0 0 48 48"
    fill="none"
    xmlns="http://www.w3.org/2000/svg"
  >
    <path
      fill-rule="evenodd"
      clip-rule="evenodd"
      d="M24 39C32.2843 39 39 32.2843 39 24C39 15.7157 32.2843 9 24 9C15.7157 9 9 15.7157 9 24C9 32.2843 15.7157 39 24 39ZM24 42C33.9411 42 42 33.9411 42 24C42 14.0589 33.9411 6 24 6C14.0589 6 6 14.0589 6 24C6 33.9411 14.0589 42 24 42ZM24 15C23.1716 15 22.5 15.6716 22.5 16.5C22.5 17.3284 23.1716 18 24 18C24.8284 18 25.5 17.3284 25.5 16.5C25.5 15.6716 24.8284 15 24 15ZM22.5 32C22.5 32.8284 23.1716 33.5 24 33.5C24.8284 33.5 25.5 32.8284 25.5 32V22C25.5 21.1716 24.8284 20.5 24 20.5C23.1716 20.5 22.5 21.1716 22.5 22V32Z"
      fill="#2491E7"
    />
  </svg>