<svg width="16" height="16" viewBox="0 0 16 16" fill="none" xmlns="http://www.w3.org/2000/svg">
<g id="Icon / ArrowUp">
<path id="icon" fill-rule="evenodd" clip-rule="evenodd" d="M3.14645 6.64645C2.95118 6.84171 2.95118 7.15829 3.14645 7.35355C3.34171 7.54882 3.65829 7.54882 3.85355 7.35355L7.5 3.70711L7.5 13.5C7.5 13.7761 7.72386 14 8 14C8.27614 14 8.5 13.7761 8.5 13.5L8.5 3.70711L12.1464 7.35355C12.3417 7.54882 12.6583 7.54882 12.8536 7.35355C13.0488 7.15829 13.0488 6.84171 12.8536 6.64645L8.35355 2.14645C8.30561 2.09851 8.25036 2.06234 8.19139 2.03794C8.13777 2.01575 8.08106 2.0033 8.02398 2.00057C8.01599 2.00019 8.008 2 8 2C7.9322 2 7.86756 2.01349 7.80861 2.03794C7.74964 2.06234 7.69438 2.09851 7.64645 2.14645L3.14645 6.64645Z" fill="#2491E7"/>
</g>
</svg>
