<svg width="60" height="60" viewBox="0 0 60 60" fill="none" xmlns="http://www.w3.org/2000/svg">
<g id="Frame 881233707" clip-path="url(#clip0_20524_2795)">
<g id="Vector 660">
<path d="M37.0487 22.725C38.855 22.9859 51.4912 30.9626 57.0637 34.8433C57.6569 35.2015 58.6064 35.9895 57.6588 36.2757C49.5645 38.7203 46.7609 41.5577 34.7548 49.248C34.0222 49.7411 32.3613 50.8371 30.9798 50.5006C30.6907 50.3973 30.6136 49.6301 31.2676 49.0354C44.5093 36.9927 54.1292 35.6939 54.7199 35.4723C55.3106 35.2507 52.898 34.0285 50.2259 32.7304C48.0883 31.6919 40.7813 27.2349 37.395 25.1363C36.1804 24.1737 34.4107 22.3439 37.0487 22.725Z" fill="#0081FF"/>
<path d="M1.84182 10.0877C14.9509 30.5338 32.2336 32.8289 42.6101 33.4698C43.2757 33.4736 44.6411 33.6339 44.7779 34.2448C44.9147 34.8558 43.6458 35.2471 42.9943 35.3663C21.2304 38.3429 5.64421 23.3791 0.69858 11.5562C0.104155 9.06855 1.32352 9.30842 1.84182 10.0877Z" fill="#0081FF"/>
</g>
</g>
<defs>
<clipPath id="clip0_20524_2795">
<rect width="57" height="57" fill="white" transform="matrix(0.0371498 0.99931 0.99931 -0.0371498 0 2.11768)"/>
</clipPath>
</defs>
</svg>
