<svg width="134" height="64" viewBox="0 0 134 64" fill="none" xmlns="http://www.w3.org/2000/svg">
<g id="aec23sau-cityscape-global-logo-english-fw 1" clip-path="url(#clip0_18627_26681)">
<g id="Group">
<path id="Vector" d="M18.9846 22.1864H22.3425V35.5298H18.9846V22.1864ZM18.8701 16.7354H22.457V20.0809H18.8701V16.7354Z" fill="white"/>
<g id="Group_2">
<path id="Vector_2" d="M26.2147 30.9796V24.9192H23.938V22.1888H26.2147V17.8652H29.5726V22.1888H32.3055L33.4992 24.9192H29.5707V30.7526C29.5707 31.5113 29.6988 32.0954 29.955 32.501C30.2112 32.9105 30.6246 33.1123 31.1914 33.1123C31.7213 33.1123 32.1327 33.0114 32.4569 32.8852C33.1285 32.6233 33.4254 32.3419 33.6758 32.1051L34.7763 34.4222C34.1125 34.952 33.4584 35.342 32.814 35.5885C32.1696 35.833 31.4476 35.9572 30.6498 35.9572C29.0194 35.9572 27.8684 35.5011 27.2066 34.591C26.5486 33.6809 26.2147 32.4777 26.2147 30.9796Z" fill="white"/>
<path id="Vector_3" d="M34.3726 40.5385L35.8788 38.1768C36.069 38.3282 36.2786 38.4757 36.5057 38.6173C36.7328 38.759 37.0181 38.8308 37.3578 38.8308C37.8139 38.8308 38.1924 38.6406 38.4952 38.2603C38.7999 37.8819 39.1027 37.2939 39.4074 36.4963L39.8364 35.4154L33.8311 22.1865H37.7013L41.5153 31.3188L44.8732 22.1865H48.5436L42.9652 35.5299C42.6993 36.1742 42.4295 36.8534 42.1539 37.5636C41.8783 38.2738 41.5561 38.9298 41.1873 39.5255C40.8185 40.1232 40.3469 40.6103 39.7762 40.9906C39.2056 41.371 38.4777 41.5612 37.5849 41.5612C36.826 41.5612 36.1952 41.4661 35.6905 41.2759C35.1917 41.0896 34.7511 40.8412 34.3726 40.5385Z" fill="white"/>
<path id="Vector_4" d="M48.2642 33.9095L50.2847 31.7186C50.702 32.1358 51.228 32.4812 51.8627 32.7568C52.4974 33.0324 53.2233 33.1682 54.0385 33.1682C54.7606 33.1682 55.337 33.0692 55.7738 32.8694C56.2105 32.6714 56.4279 32.3609 56.4279 31.9456C56.4279 31.6798 56.3463 31.4469 56.1852 31.249C56.0241 31.051 55.7078 30.8492 55.2303 30.6513C54.7567 30.4533 54.0249 30.2399 53.0389 30.0128C52.4489 29.8615 51.8239 29.6344 51.1601 29.3298C50.4963 29.027 49.9314 28.5962 49.4676 28.0354C49.0017 27.4746 48.7708 26.7701 48.7708 25.9143C48.7708 25.0217 49.0405 24.2649 49.5821 23.6381C50.1236 23.0113 50.8146 22.5378 51.6589 22.2156C52.5032 21.8935 53.3708 21.7324 54.2637 21.7324C55.4419 21.7324 56.4453 21.8566 57.2799 22.1011C58.1146 22.3495 58.8541 22.7182 59.5004 23.2111L57.7652 25.5728C57.4042 25.307 56.9248 25.0644 56.3269 24.847C55.7291 24.6297 55.0401 24.5191 54.2656 24.5191C53.4873 24.5191 52.938 24.6375 52.6158 24.8742C52.2936 25.1129 52.1325 25.4001 52.1325 25.7416C52.1325 26.1589 52.3926 26.4868 52.9147 26.7236C53.4368 26.9623 54.2482 27.2126 55.3487 27.4765C56.6977 27.7792 57.7729 28.2489 58.5785 28.8834C59.384 29.5199 59.7877 30.4825 59.7877 31.7729C59.7877 32.6248 59.5276 33.372 59.0055 34.0046C58.4833 34.6392 57.7904 35.1262 56.9286 35.4697C56.0668 35.8113 55.1119 35.982 54.0696 35.982C52.8351 35.982 51.7133 35.8054 50.6962 35.4561C49.683 35.1088 48.8717 34.5926 48.2642 33.9095Z" fill="white"/>
<path id="Vector_5" d="M71.5166 31.6332L73.51 33.797C72.883 34.4607 72.1397 34.9904 71.274 35.3902C70.4122 35.7899 69.4204 35.9879 68.3004 35.9879C66.7845 35.9879 65.4356 35.6599 64.3622 35.0642C63.2889 34.4665 62.4736 33.632 61.9127 32.5608C61.3518 31.4896 61.0723 30.2516 61.0723 28.8466C61.0723 27.558 61.3751 26.3704 61.9845 25.2915C62.592 24.2106 63.4325 23.347 64.502 22.7027C65.5714 22.0585 66.9068 21.5869 68.3276 21.5869C69.4087 21.5869 70.4549 21.7111 71.3458 22.0992C72.2386 22.4873 72.9956 23.0132 73.6206 23.6769L71.4875 25.8406C71.1265 25.404 70.6878 25.0625 70.1637 24.818C69.6416 24.5735 69.0031 24.5036 68.3392 24.5036C67.4833 24.5036 66.6797 24.8645 66.1188 25.2643C65.5578 25.6641 65.1425 26.1802 64.8669 26.8148C64.5912 27.4513 64.4554 28.1286 64.4554 28.8485C64.4554 29.5122 64.5951 30.1662 64.8669 30.8143C65.1425 31.4586 65.5617 31.9923 66.1188 32.4075C66.6797 32.8248 67.4367 33.0615 68.2927 33.0615C68.9565 33.0615 69.5698 32.9334 70.1288 32.6773C70.6956 32.4172 71.1575 32.0699 71.5166 31.6332Z" fill="white"/>
<path id="Vector_6" d="M83.1684 30.8084V29.5005C82.7317 29.4636 82.2562 29.4345 81.7457 29.4171C81.2333 29.3996 80.8432 29.3899 80.5792 29.3899C79.4981 29.3899 78.7411 29.6033 78.3044 30.0283C77.8677 30.4553 77.6503 30.9423 77.6503 31.4954C77.6503 32.0621 77.8541 32.5084 78.2617 32.8305C78.6693 33.1526 79.2729 33.3137 80.0687 33.3137C80.5986 33.3137 81.0974 33.1992 81.5633 32.9722C82.0291 32.7451 82.4134 32.4424 82.7162 32.0621C83.019 31.6817 83.1684 31.2625 83.1684 30.8084ZM83.2538 35.5318L83.1704 34.2801C82.8094 34.7167 82.2542 35.1049 81.505 35.4464C80.7558 35.7879 79.9367 35.9587 79.0439 35.9587C78.3218 35.9587 77.6056 35.8074 76.8952 35.5027C76.1848 35.2 75.5948 34.7245 75.1309 34.0802C74.6651 33.436 74.4341 32.6209 74.4341 31.6351C74.4341 30.1195 74.9737 28.9416 76.0567 28.1072C77.1379 27.2727 78.5528 26.8555 80.2977 26.8555C80.6199 26.8555 81.0043 26.8652 81.4507 26.8827C81.8971 26.9021 82.4697 26.9292 83.1723 26.9661V26.6537C83.1723 25.99 82.9064 25.4699 82.3746 25.0876C81.8447 24.7092 81.1673 24.5443 80.3152 24.5443C79.3661 24.5443 78.6324 24.8101 78.0617 25.0547C77.4911 25.303 77.0602 25.5398 76.6235 25.8251L74.9251 23.6497C75.2842 23.3838 75.8005 23.0481 76.2955 22.7919C76.7885 22.5358 77.3688 22.2641 78.0889 22.0933C78.809 21.9226 79.6883 21.7285 80.75 21.7285C82.458 21.7285 83.8225 22.1787 84.8493 23.0792C85.8722 23.9815 86.3866 25.1439 86.3866 26.5664V35.5279L83.2538 35.5318Z" fill="white"/>
<path id="Vector_7" d="M92.2638 28.3035V32.2584C92.9276 32.8076 93.9311 33.0831 95.2801 33.0831C96.0953 33.0831 96.7902 32.8833 97.3569 32.4854C97.9276 32.0857 98.3623 31.5714 98.6651 30.9349C98.9679 30.3004 99.1213 29.6309 99.1213 28.9284C99.1213 28.1696 99.0126 27.4807 98.7932 26.8675C98.5758 26.2504 98.209 25.7575 97.6985 25.3888C97.1861 25.0201 96.5048 24.8338 95.6489 24.8338C94.9657 24.8338 94.3717 25.0142 93.869 25.3732C93.3663 25.7342 92.9723 26.1844 92.687 26.7239C92.4094 27.2653 92.2638 27.7912 92.2638 28.3035ZM88.937 41.2219V22.1868H92.1804L92.2677 23.6966C92.6093 23.3182 93.1256 22.9281 93.8185 22.5303C94.5095 22.1306 95.4063 21.9326 96.5068 21.9326C97.8732 21.9326 98.997 22.2703 99.8802 22.9437C100.763 23.617 101.421 24.4845 101.858 25.546C102.295 26.6094 102.512 27.7369 102.512 28.9303C102.512 29.9743 102.361 30.8651 102.056 31.6044C101.753 32.3418 101.373 32.99 100.919 33.5392C100.16 34.4318 99.3309 35.0606 98.4283 35.4332C97.5258 35.8019 96.6019 35.9882 95.6547 35.9882C94.7832 35.9882 94.1233 35.9164 93.6769 35.7747C93.2304 35.633 92.7607 35.4681 92.2697 35.276V41.2219H88.937Z" fill="white"/>
<path id="Vector_8" d="M107.559 27.4513H114.103C114.103 26.9952 113.985 26.545 113.748 26.1006C113.51 25.6543 113.166 25.2856 112.71 24.9906C112.254 24.6976 111.677 24.5501 110.975 24.5501C110.233 24.5501 109.614 24.6957 109.111 24.9906C108.609 25.2856 108.224 25.6543 107.958 26.1006C107.692 26.545 107.559 26.9952 107.559 27.4513ZM115.555 31.5478L117.376 33.5971C117.32 33.6533 117.162 33.8105 116.904 34.0647C116.648 34.3209 116.277 34.5945 115.794 34.8895C115.311 35.1845 114.694 35.4387 113.944 35.658C113.193 35.8753 112.298 35.9859 111.256 35.9859C109.833 35.9859 108.595 35.6754 107.543 35.0622C106.489 34.4451 105.67 33.5874 105.082 32.4871C104.494 31.3868 104.199 30.1254 104.199 28.703C104.199 27.395 104.488 26.2132 105.066 25.1595C105.645 24.1057 106.442 23.2713 107.458 22.6561C108.471 22.039 109.643 21.7324 110.973 21.7324C112.205 21.7324 113.238 21.9498 114.072 22.3864C114.907 22.823 115.582 23.4071 116.093 24.1348C116.605 24.8664 116.976 25.6854 117.203 26.5955C117.43 27.5056 117.545 28.4371 117.545 29.3822V29.8654H107.588C107.588 30.5096 107.774 31.0743 108.143 31.5575C108.512 32.0407 108.983 32.4191 109.55 32.6947C110.121 32.9703 110.697 33.1061 111.287 33.1061C112.159 33.1061 112.881 33.0071 113.447 32.8073C114.018 32.6093 114.474 32.3862 114.814 32.1378C115.157 31.8991 115.404 31.7011 115.555 31.5478Z" fill="white"/>
<path id="Vector_9" d="M14.9396 29.8966L17.4435 32.0603C17.065 32.6308 16.4943 33.2169 15.7354 33.8243C14.9765 34.4317 14.0759 34.944 13.0316 35.3612C11.9874 35.7784 10.8578 35.9861 9.6466 35.9861C7.76775 35.9861 6.1024 35.5591 4.6525 34.7053C3.20259 33.8534 2.06325 32.6813 1.23834 31.1909C0.411485 29.7006 0 28.02 0 26.1416C0 24.756 0.238739 23.4578 0.710394 22.2449C1.18399 21.0301 1.85362 19.9647 2.71735 19.043C3.57914 18.1231 4.61174 17.4032 5.80543 16.8792C6.99912 16.3591 8.31898 16.0972 9.76112 16.0972C11.64 16.0972 13.1986 16.4659 14.4427 17.2072C15.6849 17.9485 16.6865 18.847 17.4435 19.9104L14.9105 22.1576C14.303 21.2863 13.5965 20.5838 12.791 20.0521C11.9835 19.5223 10.9742 19.2545 9.75918 19.2545C8.52472 19.2545 7.45913 19.5669 6.55658 20.1937C5.65403 20.8186 4.96305 21.6511 4.47975 22.6835C3.99645 23.7158 3.75383 24.8414 3.75383 26.0562C3.75383 27.271 3.99645 28.3713 4.47975 29.3571C4.96305 30.3429 5.64239 31.1308 6.51388 31.7188C7.38538 32.3068 8.41021 32.6017 9.58643 32.6017C10.687 32.6017 11.574 32.4406 12.2475 32.1185C12.921 31.7964 13.4625 31.4219 13.8682 30.993C14.2797 30.5661 14.6349 30.2012 14.9396 29.8966Z" fill="white"/>
<path id="Vector_10" d="M10.9239 56.2008V53.1755H17.6843V60.9824C16.9487 61.681 15.9821 62.2923 14.7845 62.8201C13.5869 63.3479 12.0361 63.6138 10.13 63.6138C8.07262 63.6138 6.31022 63.1811 4.83897 62.3136C3.36772 61.4462 2.23613 60.2721 1.44422 58.7934C0.650364 57.3147 0.256348 55.6594 0.256348 53.8295C0.256348 52.4536 0.491205 51.1612 0.962859 49.9541C1.43451 48.7471 2.09832 47.6875 2.95817 46.7735C3.81608 45.8595 4.83897 45.1435 6.02878 44.6234C7.21665 44.1053 8.5268 43.8452 9.96118 43.8452C11.8264 43.8452 13.3792 44.212 14.6156 44.9475C15.8501 45.6829 16.8458 46.5775 17.5989 47.6332L15.0814 49.8687C14.4759 49.0013 13.7752 48.3027 12.9755 47.7749C12.1719 47.247 11.1685 46.9812 9.96118 46.9812C8.73449 46.9812 7.67278 47.2936 6.77993 47.9146C5.88515 48.5356 5.19611 49.3623 4.71475 50.3908C4.23339 51.4193 3.99271 52.537 3.99271 53.7441C3.99271 55.0811 4.27997 56.2513 4.8545 57.2507C5.42902 58.2501 6.19182 59.0224 7.14678 59.5697C8.09785 60.1169 9.14209 60.3905 10.2717 60.3905C12.007 60.3905 13.3443 59.9772 14.2895 59.1466V56.2047L10.9239 56.2008Z" fill="#6B4DFF"/>
</g>
<path id="Vector_11" d="M23.1324 44.2935H19.7939V63.1597H23.1324V44.2935Z" fill="#6B4DFF"/>
<g id="Group_3">
<path id="Vector_12" d="M32.0589 60.7263C32.9071 60.7263 33.6097 60.5109 34.1648 60.0743C34.7199 59.6415 35.1372 59.0982 35.409 58.4481C35.6807 57.798 35.8185 57.1518 35.8185 56.5114C35.8185 55.869 35.6827 55.2306 35.409 54.5883C35.1372 53.9459 34.7199 53.4123 34.1648 52.9757C33.6078 52.5429 32.9051 52.3236 32.0589 52.3236C31.2107 52.3236 30.508 52.541 29.9529 52.9757C29.3959 53.4084 28.9805 53.9479 28.7088 54.5883C28.437 55.2306 28.2973 55.871 28.2973 56.5114C28.2973 57.1537 28.4331 57.798 28.7088 58.4481C28.9805 59.1001 29.3978 59.6396 29.9529 60.0743C30.508 60.5109 31.2126 60.7263 32.0589 60.7263ZM24.9316 56.5114C24.9316 55.2306 25.2344 54.0507 25.8361 52.9757C26.4378 51.9006 27.2744 51.0429 28.34 50.4005C29.4056 49.7582 30.6439 49.4399 32.0608 49.4399C33.4758 49.4399 34.7141 49.7621 35.7816 50.4005C36.8472 51.0429 37.6818 51.8986 38.2855 52.9757C38.8872 54.0507 39.19 55.2287 39.19 56.5114C39.19 57.7941 38.8872 58.972 38.2855 60.0471C37.6799 61.1222 36.8472 61.9838 35.7816 62.6339C34.7161 63.2859 33.4777 63.61 32.0608 63.61C30.6439 63.61 29.4075 63.2859 28.34 62.6339C27.2744 61.9818 26.4398 61.1202 25.8361 60.0471C25.2325 58.972 24.9316 57.7941 24.9316 56.5114Z" fill="#6B4DFF"/>
<path id="Vector_13" d="M44.1685 55.4381V60.4429C44.4345 60.5166 44.7062 60.5845 44.9896 60.6408C45.2729 60.6971 45.7155 60.7243 46.3211 60.7243C47.2256 60.7243 47.9864 60.5205 48.5978 60.1169C49.2092 59.7113 49.6789 59.1834 49.9973 58.5333C50.3175 57.8813 50.4786 57.1905 50.4786 56.455C50.4786 55.7758 50.3641 55.1335 50.139 54.5319C49.9138 53.9303 49.5644 53.4413 49.0928 53.0745C48.6211 52.7078 48.0078 52.5215 47.2547 52.5215C46.2551 52.5215 45.4903 52.7815 44.9624 53.2996C44.4306 53.8197 44.1685 54.5319 44.1685 55.4381ZM40.8301 62.7347V44.2915H44.1685V50.7963C44.3937 50.5712 44.8323 50.315 45.4845 50.0336C46.1347 49.7503 46.9014 49.6106 47.7884 49.6106C49.0695 49.6106 50.1642 49.9172 51.0706 50.5304C51.9751 51.1417 52.67 51.9568 53.1494 52.9756C53.6307 53.9944 53.8714 55.1257 53.8714 56.3696C53.8714 57.6911 53.5648 58.8962 52.9514 59.9888C52.34 61.0813 51.4743 61.9585 50.3641 62.6202C49.2519 63.28 47.9204 63.6118 46.3735 63.6118C45.2244 63.6118 44.1627 63.5167 43.1922 63.3285C42.2198 63.1383 41.4318 62.9404 40.8301 62.7347Z" fill="#6B4DFF"/>
<path id="Vector_14" d="M63.8035 58.4631V57.1629C63.3707 57.126 62.899 57.0969 62.3885 57.0795C61.8781 57.0601 61.4918 57.0523 61.2278 57.0523C60.1525 57.0523 59.3994 57.2658 58.9647 57.6888C58.5299 58.1118 58.3125 58.5989 58.3125 59.1462C58.3125 59.7109 58.5163 60.1553 58.92 60.4774C59.3257 60.7976 59.9235 60.9587 60.7174 60.9587C61.2453 60.9587 61.7403 60.8442 62.2022 60.6191C62.6642 60.394 63.0446 60.0912 63.3474 59.7148C63.6521 59.3305 63.8035 58.9172 63.8035 58.4631ZM63.8889 63.1593L63.8054 61.9154C63.4464 62.3481 62.8951 62.7362 62.1498 63.0758C61.4045 63.4154 60.5893 63.5862 59.7042 63.5862C58.988 63.5862 58.2776 63.4348 57.5672 63.1321C56.8607 62.8294 56.2764 62.3598 55.8125 61.7174C55.3486 61.0751 55.1177 60.2659 55.1177 59.284C55.1177 57.7742 55.6553 56.6079 56.7306 55.7773C57.8059 54.9468 59.2112 54.5334 60.9464 54.5334C61.2667 54.5334 61.6471 54.5431 62.0916 54.5606C62.536 54.58 63.1048 54.6072 63.8035 54.6441V54.3316C63.8035 53.6718 63.5376 53.1537 63.0096 52.7753C62.4817 52.3988 61.7927 52.2106 60.9445 52.2106C60.0011 52.2106 59.2461 52.3348 58.6813 52.5773C58.1165 52.8219 57.6157 53.0858 57.1829 53.371L55.6553 51.1083C56.0144 50.8425 56.4375 50.5863 56.9286 50.3302C57.4197 50.074 58.0214 49.8644 58.7395 49.6937C59.4557 49.5248 60.3428 49.4375 61.3986 49.4375C63.097 49.4375 64.4537 49.8858 65.4727 50.7804C66.4917 51.6769 67.0003 52.8316 67.0003 54.2443V63.1554H63.885L63.8889 63.1593Z" fill="#6B4DFF"/>
</g>
<path id="Vector_15" d="M72.2486 44.2935H68.9102V63.1597H72.2486V44.2935Z" fill="#6B4DFF"/>
<path id="Vector_16" d="M123.748 6.11474L123.682 35.724L133.472 29.6092L133.538 0L123.748 6.11474Z" fill="#6B4DFF"/>
</g>
</g>
<defs>
<clipPath id="clip0_18627_26681">
<rect width="133.538" height="64" fill="white"/>
</clipPath>
</defs>
</svg>
