<svg width="86" height="90" viewBox="0 0 86 90" fill="none" xmlns="http://www.w3.org/2000/svg">
<path fill-rule="evenodd" clip-rule="evenodd" d="M26.875 17.2611C24.7367 17.2611 22.686 18.1359 21.174 19.693C19.6619 21.2501 18.8125 23.362 18.8125 25.5641V31.379C19.6489 31.5548 20.4711 31.8131 21.2673 32.1528C23.7227 33.2002 25.8214 34.9739 27.2979 37.2496C28.7744 39.5252 29.5625 42.2007 29.5625 44.9377H56.4375C56.4375 42.2007 57.2256 39.5252 58.7021 37.2496C60.1787 34.9739 62.2773 33.2002 64.7327 32.1528C65.5289 31.8131 66.3511 31.5548 67.1875 31.379V25.5641C67.1875 23.362 66.3381 21.2501 64.826 19.693C63.314 18.1359 61.2633 17.2611 59.125 17.2611H26.875ZM72.5625 31.379V25.5641C72.5625 21.894 71.1468 18.3741 68.6267 15.779C66.1067 13.1838 62.6888 11.7258 59.125 11.7258H26.875C23.3112 11.7258 19.8933 13.1838 17.3733 15.779C14.8532 18.3741 13.4375 21.894 13.4375 25.5641V31.379C10.8565 31.9216 8.48666 33.2336 6.62326 35.1525C4.74399 37.0879 3.46419 39.5536 2.9457 42.238C2.42721 44.9223 2.69332 47.7047 3.71038 50.2334C4.72743 52.762 6.44975 54.9232 8.65953 56.4438C10.1151 57.4453 11.739 58.1393 13.4375 58.4964V69.8466C13.4375 71.3146 14.0038 72.7225 15.0118 73.7606C16.0198 74.7987 17.387 75.3819 18.8125 75.3819H67.1875C68.613 75.3819 69.9802 74.7987 70.9882 73.7606C71.9962 72.7225 72.5625 71.3146 72.5625 69.8466V58.4964C74.261 58.1393 75.885 57.4453 77.3405 56.4438C79.5503 54.9232 81.2726 52.762 82.2896 50.2334C83.3067 47.7047 83.5728 44.9223 83.0543 42.238C82.5358 39.5536 81.256 37.0879 79.3768 35.1525C77.5134 33.2336 75.1435 31.9216 72.5625 31.379ZM56.4375 50.473H29.5625V58.7759C29.5625 60.3045 28.3593 61.5436 26.875 61.5436C25.3907 61.5436 24.1875 60.3045 24.1875 58.7759V47.7128C24.1875 47.7103 24.1875 47.7078 24.1875 47.7053C24.1875 47.7028 24.1875 47.7004 24.1875 47.6979V44.9377C24.1875 43.2955 23.7147 41.6902 22.8287 40.3248C21.9428 38.9594 20.6836 37.8952 19.2104 37.2667C17.7372 36.6383 16.1161 36.4739 14.5521 36.7943C12.9881 37.1146 11.5515 37.9054 10.424 39.0666C9.2964 40.2278 8.52852 41.7072 8.21742 43.3179C7.90633 44.9285 8.066 46.5979 8.67623 48.1151C9.28646 49.6323 10.3198 50.929 11.6457 51.8413C12.9716 52.7537 14.5304 53.2406 16.125 53.2406C17.6093 53.2406 18.8125 54.4798 18.8125 56.0083V69.8466H67.1875V56.0083C67.1875 54.4798 68.3907 53.2406 69.875 53.2406C71.4696 53.2406 73.0284 52.7537 74.3543 51.8413C75.6802 50.929 76.7136 49.6323 77.3238 48.1151C77.934 46.5979 78.0937 44.9285 77.7826 43.3179C77.4715 41.7072 76.7036 40.2278 75.5761 39.0666C74.4485 37.9054 73.0119 37.1146 71.4479 36.7943C69.884 36.4739 68.2629 36.6383 66.7896 37.2667C65.3164 37.8952 64.0572 38.9594 63.1713 40.3248C62.2854 41.6902 61.8125 43.2955 61.8125 44.9377V58.7759C61.8125 60.3045 60.6093 61.5436 59.125 61.5436C57.6407 61.5436 56.4375 60.3045 56.4375 58.7759V50.473Z" fill="#2491E7"/>
</svg>
