<svg width="63" height="71" viewBox="0 0 63 71" fill="none" xmlns="http://www.w3.org/2000/svg">
<path fill-rule="evenodd" clip-rule="evenodd" d="M54.1126 58.3883C49.0357 62.5219 42.5572 65 35.5 65C19.2076 65 6 51.7924 6 35.5C6 19.2076 19.2076 6 35.5 6C41.3897 6 46.8763 7.726 51.4815 10.6998L50.0152 12.4049C49.5133 12.9885 49.8314 13.8967 50.5879 14.0395L61.6507 16.1287C62.4071 16.2715 63.0345 15.5419 62.78 14.8154L59.0579 4.19018C58.8034 3.46367 57.8578 3.28511 57.3559 3.86877L55.4247 6.11451C49.7439 2.2552 42.8853 0 35.5 0C15.8939 0 0 15.8939 0 35.5C0 55.1061 15.8939 71 35.5 71C44.4573 71 52.6398 67.6826 58.8858 62.2093C59.414 60.7625 59.14 59.2245 58.0698 58.3604C56.9933 57.4913 55.4201 57.5534 54.1126 58.3883Z" fill="#2491E7"/>
<path d="M35 18L35 35" stroke="#2491E7" stroke-width="5" stroke-linecap="round"/>
<path d="M35 35L54 44" stroke="#2491E7" stroke-width="5" stroke-linecap="round"/>
</svg>
