<svg width="24" height="24" viewBox="0 0 24 24" fill="none" xmlns="http://www.w3.org/2000/svg">
<path fill-rule="evenodd" clip-rule="evenodd" d="M3.40699 8.09506C5.19485 6.30701 8.00038 4.5 11.9998 4.5C15.9993 4.5 18.8048 6.30701 20.5927 8.09506C21.4845 8.98693 22.1275 9.87749 22.5486 10.5464C22.7595 10.8814 22.9158 11.1625 23.0207 11.3627C23.0731 11.4628 23.1128 11.5429 23.1401 11.5996C23.1537 11.6279 23.1643 11.6504 23.1718 11.6666L23.1808 11.6862L23.1836 11.6924L23.1845 11.6946C23.1847 11.695 23.1852 11.6962 22.4998 12.0007C23.1852 12.3054 23.185 12.3057 23.1849 12.3061L23.1835 12.3091L23.1807 12.3153L23.1718 12.3349C23.1642 12.3511 23.1537 12.3736 23.1401 12.4019C23.1128 12.4586 23.0731 12.5386 23.0206 12.6388C22.9158 12.839 22.7595 13.12 22.5486 13.4549C22.1275 14.1237 21.4844 15.014 20.5926 15.9057C18.8048 17.6934 15.9993 19.5 11.9998 19.5C8.00044 19.5 5.19492 17.6934 3.40704 15.9057C2.51527 15.014 1.87222 14.1237 1.45113 13.4549C1.24021 13.12 1.08391 12.839 0.979041 12.6388C0.92658 12.5386 0.886906 12.4586 0.85963 12.4019C0.845989 12.3736 0.835441 12.3511 0.827937 12.3349L0.818956 12.3153L0.816164 12.3091L0.815191 12.3069C0.815029 12.3066 0.814498 12.3054 1.49984 12.0007C0.814474 11.6962 0.814623 11.6958 0.814785 11.6955L0.816139 11.6924L0.818931 11.6862L0.827911 11.6666C0.835415 11.6504 0.845962 11.6279 0.859602 11.5996C0.886877 11.5429 0.92655 11.4628 0.97901 11.3627C1.08388 11.1625 1.24018 10.8814 1.45109 10.5464C1.87218 9.87749 2.51522 8.98693 3.40699 8.09506ZM1.49984 12.0007L0.814785 11.6955C0.728604 11.8894 0.728302 12.1114 0.814498 12.3054L1.49984 12.0007ZM2.18467 12.3065C2.18451 12.3069 2.18471 12.3064 2.18467 12.3065V12.3065ZM2.33843 12.0007C2.42667 11.8354 2.55338 11.6109 2.72048 11.3455C3.09626 10.7486 3.67197 9.95149 4.4677 9.15567C6.05484 7.56836 8.49931 6 11.9998 6C15.5004 6 17.9448 7.56836 19.532 9.15567C20.3277 9.95149 20.9034 10.7486 21.2792 11.3455C21.4463 11.6109 21.573 11.8354 21.6613 12.0007C21.573 12.1659 21.4463 12.3903 21.2793 12.6557C20.9035 13.2524 20.3278 14.0494 19.532 14.845C17.9449 16.432 15.5004 18 11.9998 18C8.49925 18 6.05477 16.432 4.46765 14.845C3.67192 14.0494 3.09622 13.2524 2.72044 12.6557C2.55336 12.3903 2.42666 12.1659 2.33843 12.0007ZM22.4998 12.0007L23.1849 12.3061C23.2711 12.1121 23.2714 11.8901 23.1852 11.6962L22.4998 12.0007Z" fill="#839AAF"/>
<path fill-rule="evenodd" clip-rule="evenodd" d="M12 9C10.3431 9 9 10.3431 9 12C9 13.6569 10.3431 15 12 15C13.6569 15 15 13.6569 15 12C15 10.3431 13.6569 9 12 9ZM7.5 12C7.5 9.51472 9.51472 7.5 12 7.5C14.4853 7.5 16.5 9.51472 16.5 12C16.5 14.4853 14.4853 16.5 12 16.5C9.51472 16.5 7.5 14.4853 7.5 12Z" fill="#839AAF"/>
</svg>
