<svg width="64" height="64" viewBox="0 0 64 64" fill="none" xmlns="http://www.w3.org/2000/svg">
<rect width="64" height="64" rx="32" fill="#4EA6EC"/>
<path fill-rule="evenodd" clip-rule="evenodd" d="M26 22.0015C25.2044 22.0015 24.4413 22.3175 23.8787 22.8801C23.3161 23.4428 23 24.2058 23 25.0015V27.1025C23.3112 27.166 23.6171 27.2593 23.9134 27.3821C24.8271 27.7605 25.6079 28.4014 26.1574 29.2236C26.7068 30.0459 27 31.0126 27 32.0015H37C37 31.0126 37.2932 30.0459 37.8427 29.2236C38.3921 28.4014 39.173 27.7605 40.0866 27.3821C40.3829 27.2594 40.6888 27.166 41 27.1025V25.0015C41 24.2058 40.6839 23.4428 40.1213 22.8801C39.5587 22.3175 38.7957 22.0015 38 22.0015H26ZM43 27.1025V25.0015C43 23.6754 42.4732 22.4036 41.5355 21.4659C40.5979 20.5282 39.3261 20.0015 38 20.0015H26C24.6739 20.0015 23.4021 20.5282 22.4645 21.4659C21.5268 22.4036 21 23.6754 21 25.0015V27.1025C20.0396 27.2985 19.1578 27.7726 18.4645 28.4659C17.7652 29.1652 17.289 30.0561 17.0961 31.026C16.9031 31.9959 17.0022 33.0013 17.3806 33.9149C17.759 34.8285 18.3999 35.6094 19.2222 36.1588C19.7637 36.5207 20.368 36.7714 21 36.9005V41.0015C21 41.5319 21.2107 42.0406 21.5858 42.4157C21.9609 42.7908 22.4696 43.0015 23 43.0015H41C41.5304 43.0015 42.0391 42.7908 42.4142 42.4157C42.7893 42.0406 43 41.5319 43 41.0015V36.9005C43.632 36.7714 44.2363 36.5207 44.7779 36.1588C45.6001 35.6094 46.241 34.8285 46.6194 33.9149C46.9978 33.0013 47.0969 31.9959 46.9039 31.026C46.711 30.0561 46.2348 29.1652 45.5355 28.4659C44.8422 27.7726 43.9604 27.2985 43 27.1025ZM37 34.0015H27V37.0015C27 37.5538 26.5523 38.0015 26 38.0015C25.4477 38.0015 25 37.5538 25 37.0015V33.0043C25 33.0033 25 33.0024 25 33.0015C25 33.0005 25 32.9996 25 32.9987V32.0015C25 31.4081 24.8241 30.8281 24.4944 30.3348C24.1648 29.8414 23.6962 29.4569 23.1481 29.2298C22.5999 29.0028 21.9967 28.9434 21.4147 29.0591C20.8328 29.1749 20.2982 29.4606 19.8787 29.8801C19.4591 30.2997 19.1734 30.8343 19.0576 31.4162C18.9419 31.9981 19.0013 32.6013 19.2284 33.1495C19.4554 33.6977 19.8399 34.1662 20.3333 34.4959C20.8266 34.8255 21.4067 35.0015 22 35.0015C22.5523 35.0015 23 35.4492 23 36.0015V41.0015H41V36.0015C41 35.4492 41.4477 35.0015 42 35.0015C42.5933 35.0015 43.1734 34.8255 43.6667 34.4959C44.1601 34.1662 44.5446 33.6977 44.7716 33.1495C44.9987 32.6013 45.0581 31.9981 44.9424 31.4162C44.8266 30.8343 44.5409 30.2997 44.1213 29.8801C43.7018 29.4606 43.1672 29.1749 42.5853 29.0591C42.0033 28.9434 41.4001 29.0028 40.852 29.2298C40.3038 29.4569 39.8352 29.8414 39.5056 30.3348C39.176 30.8281 39 31.4081 39 32.0015V37.0015C39 37.5538 38.5523 38.0015 38 38.0015C37.4477 38.0015 37 37.5538 37 37.0015V34.0015Z" fill="white"/>
</svg>
