<svg width="48" height="49" viewBox="0 0 48 49" fill="none" xmlns="http://www.w3.org/2000/svg">
<rect y="0.5" width="48" height="48" rx="24" fill="#E31E33"/>
<g clip-path="url(#clip0_15568_39931)">
<path fill-rule="evenodd" clip-rule="evenodd" d="M22.3999 12.95C22.8141 12.95 23.1499 13.2858 23.1499 13.7V16.7C23.1499 17.1142 22.8141 17.45 22.3999 17.45C21.9857 17.45 21.6499 17.1142 21.6499 16.7V13.7C21.6499 13.2858 21.9857 12.95 22.3999 12.95ZM17.3696 14.1697C17.6625 13.8768 18.1373 13.8768 18.4302 14.1697L20.9302 16.6697C21.2231 16.9626 21.2231 17.4374 20.9302 17.7303C20.6373 18.0232 20.1625 18.0232 19.8696 17.7303L17.3696 15.2303C17.0767 14.9374 17.0767 14.4626 17.3696 14.1697ZM27.4302 14.1697C27.7231 14.4626 27.7231 14.9374 27.4302 15.2303L24.9302 17.7303C24.6373 18.0232 24.1625 18.0232 23.8696 17.7303C23.5767 17.4374 23.5767 16.9626 23.8696 16.6697L26.3696 14.1697C26.6625 13.8768 27.1373 13.8768 27.4302 14.1697ZM31.3454 16.5156C31.1754 16.5433 31.012 16.6489 30.9302 16.7307L21.9302 25.7307C21.7464 25.9145 21.4806 25.99 21.2276 25.9303C20.9746 25.8705 20.7706 25.6841 20.6884 25.4375C20.3493 24.4202 19.4065 22.9791 18.8859 22.2665C17.319 21.3599 16.1954 21.3257 15.7782 21.3813L15.4606 21.6989L17.9302 24.1686C18.0126 24.2509 18.0746 24.3513 18.1114 24.4618L20.0554 30.2939L23.8602 34.0996C24.5972 34.505 26.1674 34.8719 27.3696 33.6697L32.7592 28.2801C32.7622 28.2685 32.765 28.2561 32.7674 28.243C32.7779 28.1874 32.7788 28.1364 32.772 28.0948C32.7658 28.0565 32.7535 28.0263 32.7333 27.9987C32.7136 27.9716 32.6687 27.923 32.5645 27.8708C32.3158 27.7465 32.0435 27.7141 31.7857 27.735C31.5215 27.7566 31.3149 27.8311 31.2353 27.8708C30.8748 28.0511 30.4364 27.9142 30.2424 27.5609C30.0485 27.2076 30.1684 26.7642 30.514 26.5569C30.8905 26.331 31.326 25.9783 31.5306 25.6584C31.6129 25.5297 31.6212 25.4636 31.6221 25.4488C31.6118 25.4302 31.5784 25.3871 31.4839 25.3241C30.785 24.8581 30.2757 25.0096 30.0458 25.1449C29.9774 25.2019 29.9116 25.2538 29.8499 25.3C29.535 25.5362 29.0912 25.4887 28.8333 25.1914C28.5754 24.8941 28.5913 24.448 28.8696 24.1697C28.9454 24.0938 29.0364 24.0178 29.1409 23.9457C29.3848 23.7348 29.6444 23.4581 29.8002 23.1879C29.8976 23.0188 29.9239 22.9047 29.925 22.8444C29.9256 22.8127 29.9239 22.7847 29.8696 22.7303C29.6802 22.5409 29.4385 22.4804 29.1313 22.5191C28.807 22.56 28.4906 22.7076 28.3159 22.8241C27.9888 23.0421 27.5488 22.9706 27.3076 22.6601C27.0664 22.3496 27.1059 21.9056 27.3982 21.6425L32.2594 17.2675C32.2269 17.1759 32.1332 16.9943 31.8696 16.7307C31.7453 16.6064 31.6422 16.5539 31.5686 16.5304C31.4944 16.5067 31.4212 16.5032 31.3454 16.5156ZM31.2677 23.5959C31.6018 23.6816 31.954 23.8347 32.3159 24.076C32.7486 24.3644 33.0521 24.7652 33.1119 25.2695C33.1623 25.6952 33.0237 26.0758 32.852 26.3718C32.9796 26.4135 33.1078 26.4654 33.2353 26.5292C33.8539 26.8385 34.1689 27.337 34.2528 27.8552C34.3291 28.327 34.2077 28.7614 34.0707 29.0354C34.0347 29.1075 33.9872 29.1733 33.9302 29.2303L28.4302 34.7303C26.4746 36.686 23.9799 35.9227 23.014 35.3431C22.9614 35.3116 22.9129 35.2737 22.8695 35.2303L18.8695 31.2292C18.7872 31.1469 18.7252 31.0465 18.6884 30.9361L16.7444 25.1041L13.8696 22.2293C13.5767 21.9364 13.5767 21.4615 13.8696 21.1686L14.8696 20.1686C14.9519 20.0863 15.0523 20.0242 15.1627 19.9874C15.9332 19.7306 17.6633 19.7823 19.7858 21.0558C19.8839 21.1147 19.9637 21.1924 20.0233 21.2816C20.4049 21.7941 21.1254 22.8475 21.6509 23.8886L29.8696 15.67C30.1211 15.4185 30.5577 15.1241 31.1044 15.0351C31.6976 14.9385 32.3574 15.0972 32.9302 15.67C33.8296 16.5694 34.0516 17.6093 33.4301 18.2305C33.4208 18.2397 33.4113 18.2487 33.4016 18.2575L30.1682 21.1675C30.4333 21.2712 30.6929 21.4324 30.9302 21.6697C31.2759 22.0153 31.4325 22.4373 31.4248 22.8712C31.4201 23.1317 31.3571 23.3764 31.2677 23.5959ZM31.626 25.4592C31.6256 25.4593 31.6241 25.4564 31.6229 25.4504C31.6259 25.4561 31.6265 25.4591 31.626 25.4592Z" fill="white"/>
</g>
<defs>
<clipPath id="clip0_15568_39931">
<rect width="24" height="24" fill="white" transform="translate(12 12.5)"/>
</clipPath>
</defs>
</svg>
