<svg width="48" height="48" viewBox="0 0 48 48" fill="none" xmlns="http://www.w3.org/2000/svg">
<rect width="48" height="48" rx="24" fill="#E31E33"/>
<path fill-rule="evenodd" clip-rule="evenodd" d="M23.2447 15.0629C23.445 14.8625 23.7167 14.75 24 14.75C24.2833 14.75 24.555 14.8625 24.7553 15.0629C24.9556 15.2632 25.0682 15.5349 25.0682 15.8182V15.9L25.0682 15.903C25.0699 16.3418 25.2 16.7705 25.4422 17.1364C25.6838 17.5011 26.0264 17.7875 26.4281 17.9605C26.8385 18.1407 27.2933 18.1943 27.7343 18.1143C28.1767 18.0341 28.5849 17.8233 28.9063 17.5089L28.967 17.4482C29.0662 17.3489 29.184 17.2701 29.3137 17.2164C29.4434 17.1626 29.5824 17.1349 29.7227 17.1349C29.8631 17.1349 30.0021 17.1626 30.1318 17.2164C30.2615 17.2701 30.3798 17.3495 30.4791 17.4488C30.5784 17.548 30.6572 17.6658 30.7109 17.7955C30.7647 17.9252 30.7923 18.0642 30.7923 18.2045C30.7923 18.3449 30.7647 18.4839 30.7109 18.6136C30.6572 18.7433 30.5781 18.8614 30.4788 18.9606L30.4242 19.0151L30.4184 19.021C30.104 19.3424 29.8931 19.7506 29.8129 20.1929C29.7423 20.5826 29.7759 20.983 29.909 21.354C29.917 21.4277 29.9359 21.4998 29.9652 21.5682C30.1381 21.9715 30.4251 22.3155 30.7909 22.5578C31.1568 22.8 31.5855 22.9301 32.0243 22.9318L32.0273 22.9318H32.1818C32.4651 22.9318 32.7368 23.0444 32.9371 23.2447C33.1375 23.445 33.25 23.7167 33.25 24C33.25 24.2833 33.1375 24.555 32.9371 24.7553C32.7368 24.9556 32.4651 25.0682 32.1818 25.0682L32.1 25.0682L32.097 25.0682C31.6582 25.0699 31.2295 25.2 30.8636 25.4422C30.4989 25.6838 30.2125 26.0264 30.0395 26.4281C29.8593 26.8385 29.8057 27.2933 29.8857 27.7343C29.9659 28.1767 30.1767 28.5849 30.4911 28.9063L30.5518 28.967C30.6511 29.0662 30.7299 29.184 30.7836 29.3137C30.8374 29.4434 30.8651 29.5824 30.8651 29.7227C30.8651 29.8631 30.8374 30.0021 30.7836 30.1318C30.7299 30.2615 30.6505 30.3799 30.5512 30.4791C30.452 30.5784 30.3342 30.6572 30.2045 30.7109C30.0748 30.7647 29.9358 30.7923 29.7955 30.7923C29.6551 30.7923 29.5161 30.7647 29.3864 30.7109C29.2567 30.6572 29.1386 30.5781 29.0394 30.4788L28.9849 30.4242L28.979 30.4184C28.6576 30.104 28.2494 29.8931 27.8071 29.8129C27.366 29.733 26.9112 29.7866 26.5009 29.9668C26.0991 30.1398 25.7565 30.4262 25.515 30.7909C25.2727 31.1568 25.1427 31.5855 25.1409 32.0243L25.1409 32.0273V32.1818C25.1409 32.4651 25.0284 32.7368 24.828 32.9371C24.6277 33.1375 24.356 33.25 24.0727 33.25C23.7894 33.25 23.5177 33.1375 23.3174 32.9371C23.1171 32.7368 23.0045 32.4651 23.0045 32.1818V32.1L23.0043 32.0825C22.9938 31.6311 22.8477 31.1934 22.585 30.8261C22.327 30.4654 21.9682 30.189 21.5538 30.0317C21.1482 29.8577 20.7002 29.8069 20.2657 29.8857C19.8233 29.9659 19.4151 30.1767 19.0937 30.4911L19.033 30.5518C18.9338 30.6511 18.816 30.7299 18.6863 30.7836C18.5566 30.8374 18.4176 30.8651 18.2773 30.8651C18.1369 30.8651 17.9979 30.8374 17.8682 30.7836C17.7385 30.7299 17.6201 30.6505 17.5209 30.5512C17.4216 30.452 17.3428 30.3342 17.2891 30.2045C17.2353 30.0748 17.2077 29.9358 17.2077 29.7955C17.2077 29.6551 17.2353 29.5161 17.2891 29.3864C17.3428 29.2567 17.4219 29.1386 17.5212 29.0394L17.5758 28.9849L17.5816 28.979C17.896 28.6576 18.1069 28.2494 18.1871 27.8071C18.267 27.366 18.2134 26.9112 18.0332 26.5009C17.8602 26.0991 17.5738 25.7565 17.2091 25.515C16.8432 25.2727 16.4145 25.1427 15.9757 25.1409H15.8182C15.5349 25.1409 15.2632 25.0284 15.0629 24.828C14.8625 24.6277 14.75 24.356 14.75 24.0727C14.75 23.7894 14.8625 23.5177 15.0629 23.3174C15.2632 23.1171 15.5349 23.0045 15.8182 23.0045H15.9L15.9175 23.0043C16.3689 22.9938 16.8066 22.8477 17.1739 22.585C17.5346 22.327 17.811 21.9682 17.9683 21.5538C18.1423 21.1482 18.1931 20.7002 18.1143 20.2657C18.0341 19.8233 17.8233 19.4151 17.5089 19.0937L17.4482 19.033C17.3489 18.9338 17.2701 18.816 17.2164 18.6863C17.1626 18.5566 17.1349 18.4176 17.1349 18.2773C17.1349 18.1369 17.1626 17.9979 17.2164 17.8682C17.2701 17.7385 17.3495 17.6201 17.4488 17.5209C17.548 17.4216 17.6658 17.3428 17.7955 17.2891C17.9252 17.2353 18.0642 17.2077 18.2045 17.2077C18.3449 17.2077 18.4839 17.2353 18.6136 17.2891C18.7433 17.3428 18.8614 17.4219 18.9606 17.5212L19.0151 17.5758L19.021 17.5816C19.3424 17.896 19.7506 18.1069 20.1929 18.1871C20.5826 18.2577 20.983 18.2241 21.354 18.091C21.4277 18.083 21.4998 18.0641 21.5682 18.0348C21.9715 17.862 22.3155 17.5749 22.5578 17.2091C22.8 16.8432 22.9301 16.4145 22.9318 15.9757L22.9318 15.9727V15.8182C22.9318 15.5349 23.0444 15.2632 23.2447 15.0629ZM31.4134 27.0301L31.4166 27.0227C31.4742 26.8883 31.5699 26.7736 31.6919 26.6929C31.8135 26.6123 31.9559 26.569 32.1018 26.5682H32.1818C32.8629 26.5682 33.5162 26.2976 33.9978 25.816C34.4794 25.3344 34.75 24.6811 34.75 24C34.75 23.3189 34.4794 22.6656 33.9978 22.184C33.5162 21.7024 32.8629 21.4318 32.1818 21.4318H32.0291C31.8832 21.431 31.7408 21.3877 31.6191 21.3071C31.5276 21.2465 31.4508 21.1667 31.3939 21.0738C31.3835 21.0131 31.3657 20.9538 31.3407 20.8972C31.2802 20.7601 31.2621 20.608 31.2889 20.4605C31.3154 20.3142 31.3848 20.1791 31.4883 20.0724L31.5394 20.0212C31.7781 19.7828 31.9674 19.4996 32.0966 19.188C32.2258 18.8762 32.2923 18.542 32.2923 18.2045C32.2923 17.867 32.2258 17.5329 32.0966 17.2211C31.9673 16.9093 31.7779 16.6261 31.5391 16.3876C31.3007 16.1491 31.0177 15.9598 30.7062 15.8307C30.3944 15.7015 30.0602 15.6349 29.7227 15.6349C29.3852 15.6349 29.051 15.7015 28.7393 15.8307C28.4276 15.9599 28.1442 16.1495 27.9057 16.3881L27.8549 16.439C27.7482 16.5424 27.6131 16.6119 27.4667 16.6384C27.3193 16.6651 27.1672 16.647 27.0301 16.5865L27.0227 16.5834C26.8883 16.5258 26.7736 16.4301 26.6929 16.3081C26.6123 16.1865 26.569 16.0441 26.5682 15.8982V15.8182C26.5682 15.1371 26.2976 14.4838 25.816 14.0022C25.3344 13.5206 24.6811 13.25 24 13.25C23.3189 13.25 22.6656 13.5206 22.184 14.0022C21.7024 14.4838 21.4318 15.1371 21.4318 15.8182V15.9709C21.431 16.1168 21.3877 16.2592 21.3071 16.3809C21.2465 16.4724 21.1667 16.5492 21.0738 16.6061C21.0131 16.6165 20.9538 16.6343 20.8972 16.6593C20.7601 16.7198 20.608 16.7379 20.4605 16.7111C20.3142 16.6846 20.1791 16.6152 20.0724 16.5117L20.0215 16.4609C19.783 16.2221 19.4998 16.0327 19.188 15.9034C18.8762 15.7742 18.542 15.7077 18.2045 15.7077C17.867 15.7077 17.5329 15.7742 17.2211 15.9034C16.9094 16.0326 16.6263 16.2219 16.3879 16.4606C16.1492 16.699 15.9599 16.9822 15.8307 17.2938C15.7015 17.6056 15.6349 17.9398 15.6349 18.2773C15.6349 18.6148 15.7015 18.949 15.8307 19.2607C15.9599 19.5725 16.1494 19.8557 16.3881 20.0943L16.439 20.1451C16.5424 20.2518 16.6119 20.3869 16.6384 20.5333C16.6651 20.6807 16.6471 20.8328 16.5866 20.9699C16.5802 20.9844 16.5743 20.999 16.5688 21.0138C16.5169 21.1551 16.4236 21.2774 16.3012 21.365C16.1808 21.4511 16.0376 21.4997 15.8897 21.5045H15.8182C15.1371 21.5045 14.4838 21.7751 14.0022 22.2567C13.5206 22.7384 13.25 23.3916 13.25 24.0727C13.25 24.7539 13.5206 25.4071 14.0022 25.8887C14.4838 26.3703 15.1371 26.6409 15.8182 26.6409H15.9709C16.1168 26.6417 16.2592 26.685 16.3809 26.7656C16.5028 26.8464 16.5984 26.961 16.6561 27.0955L16.6593 27.1028C16.7198 27.2399 16.7379 27.392 16.7111 27.5395C16.6846 27.6858 16.6152 27.8209 16.5117 27.9276L16.4606 27.9788C16.2219 28.2172 16.0326 28.5004 15.9034 28.812C15.7742 29.1238 15.7077 29.458 15.7077 29.7955C15.7077 30.133 15.7742 30.4671 15.9034 30.7789C16.0326 31.0904 16.2218 31.3735 16.4603 31.6119C16.6988 31.8506 16.982 32.0401 17.2938 32.1693C17.6056 32.2985 17.9398 32.3651 18.2773 32.3651C18.6148 32.3651 18.949 32.2985 19.2607 32.1693C19.5725 32.0401 19.8557 31.8506 20.0943 31.6119L20.1451 31.561C20.2518 31.4576 20.3869 31.3881 20.5333 31.3616C20.6807 31.3349 20.8328 31.3529 20.9699 31.4134C20.9844 31.4198 20.999 31.4257 21.0138 31.4312C21.1551 31.4831 21.2774 31.5764 21.365 31.6988C21.4511 31.8192 21.4997 31.9624 21.5045 32.1103V32.1818C21.5045 32.8629 21.7751 33.5162 22.2567 33.9978C22.7384 34.4794 23.3916 34.75 24.0727 34.75C24.7539 34.75 25.4071 34.4794 25.8887 33.9978C26.3703 33.5162 26.6409 32.8629 26.6409 32.1818V32.0291C26.6417 31.8832 26.685 31.7408 26.7656 31.6191C26.8464 31.4972 26.961 31.4016 27.0955 31.3439L27.1028 31.3407C27.2399 31.2802 27.392 31.2621 27.5395 31.2889C27.6858 31.3154 27.8209 31.3848 27.9276 31.4883L27.9785 31.5391C28.217 31.7779 28.5002 31.9673 28.812 32.0966C29.1238 32.2258 29.458 32.2923 29.7955 32.2923C30.133 32.2923 30.4671 32.2258 30.7789 32.0966C31.0906 31.9674 31.3737 31.7781 31.6122 31.5394C31.8508 31.301 32.0401 31.0178 32.1693 30.7062C32.2985 30.3944 32.3651 30.0602 32.3651 29.7227C32.3651 29.3852 32.2985 29.051 32.1693 28.7393C32.0401 28.4275 31.8506 28.1443 31.6119 27.9057L31.561 27.8549C31.4576 27.7482 31.3881 27.6131 31.3616 27.4667C31.3349 27.3193 31.3529 27.1672 31.4134 27.0301ZM21.75 24C21.75 22.7574 22.7574 21.75 24 21.75C25.2426 21.75 26.25 22.7574 26.25 24C26.25 25.2426 25.2426 26.25 24 26.25C22.7574 26.25 21.75 25.2426 21.75 24ZM24 20.25C21.9289 20.25 20.25 21.9289 20.25 24C20.25 26.0711 21.9289 27.75 24 27.75C26.0711 27.75 27.75 26.0711 27.75 24C27.75 21.9289 26.0711 20.25 24 20.25Z" fill="white"/>
</svg>
