<svg width="19" height="19" viewBox="0 0 19 19" fill="none" xmlns="http://www.w3.org/2000/svg">
<g id="Social Icons" clip-path="url(#clip0_16721_51754)">
<path id="Vector" d="M18.3244 9.70768C18.3244 9.09588 18.2748 8.48078 18.169 7.87891H9.67993V11.3446H14.5412C14.3395 12.4624 13.6913 13.4512 12.7422 14.0795V16.3283H15.6425C17.3456 14.7608 18.3244 12.4459 18.3244 9.70768Z" fill="#4285F4"/>
<path id="Vector_2" d="M9.68008 18.5C12.1074 18.5 14.1544 17.703 15.6459 16.3273L12.7457 14.0786C11.9388 14.6275 10.8971 14.9384 9.68338 14.9384C7.33541 14.9384 5.3446 13.3543 4.63029 11.2246H1.63745V13.5428C3.16529 16.5819 6.27717 18.5 9.68008 18.5Z" fill="#34A853"/>
<path id="Vector_3" d="M4.62684 11.225C4.24984 10.1073 4.24984 8.89691 4.62684 7.77914V5.46094H1.63731C0.360806 8.00402 0.360806 11.0002 1.63731 13.5432L4.62684 11.225Z" fill="#FBBC04"/>
<path id="Vector_4" d="M9.68007 4.06224C10.9632 4.0424 12.2033 4.52523 13.1326 5.4115L15.7021 2.84196C14.0751 1.31413 11.9156 0.47415 9.68007 0.500606C6.27717 0.500606 3.16528 2.41867 1.63745 5.46111L4.62698 7.77931C5.33798 5.6463 7.33211 4.06224 9.68007 4.06224Z" fill="#EA4335"/>
</g>
<defs>
<clipPath id="clip0_16721_51754">
<rect width="18" height="18" fill="white" transform="translate(0.5 0.5)"/>
</clipPath>
</defs>
</svg>
