<svg version="1.2" xmlns="http://www.w3.org/2000/svg" viewBox="0 0 512 414" width="512" height="414">
<path d="m161.5 11.1c34 3.2 71.2 3.2 109 0 34.2-2.9 60.7-2.6 76.7 0.8 42.2 9.1 66.6 29.8 94.5 80.1 32 57.6 37.9 69.2 45.6 90.1 8.8 23.5 11.5 37.1 15.7 78.9 5.2 50.5 5 65.3-0.6 84.8-3.2 10.8-11.1 27.1-16.9 34.5-4.8 6.1-15.9 14.9-24 19-17.2 8.6-28.3 9.6-107.5 9.2-57-0.3-61.2-0.4-72.5-2.4-6.6-1.2-13.6-2.6-15.5-3.1-10.5-2.5-36.2-9.7-48-13.5-4.1-1.3-10.9-3.3-15-4.5-4.1-1.2-11.1-3.2-15.5-4.5-4.4-1.3-9.3-2.6-11-2.9-1.6-0.3-6.4-1.5-10.5-2.6-4.1-1.2-10.4-2.7-14-3.5-20.8-4.3-29.9-6.5-33.5-7.8-2.2-0.8-5.5-1.8-7.2-2.1-7-1.2-26.3-9.4-36.3-15.4-13.4-8-26.2-21.2-32.5-33.5-2-4-4.1-7.7-4.5-8.2-1.7-2.2-9.2-24.4-11.5-33.9-3.3-13.7-5.2-30.1-7-62-0.8-14.7-2.7-35-4.1-45-1.3-9.9-3.4-24.9-4.6-33.1-2.7-19.4-2.9-46.5-0.5-57.3 8.7-37.9 34.6-58.7 79.7-64.2 11.4-1.4 44.7-0.4 71.5 2.1z" fill="#000000" />
</svg>