<svg width="18" height="18" viewBox="0 0 18 18" fill="none" xmlns="http://www.w3.org/2000/svg">
<path fill-rule="evenodd" clip-rule="evenodd" d="M6.75487 2.31378C4.99792 2.90329 3.54982 4.16588 2.71692 5.7952H5.44849C5.61681 4.92649 5.85252 4.13477 6.14367 3.45476C6.32235 3.03744 6.52611 2.65237 6.75487 2.31378ZM5.25597 7.07725H2.21349C2.04059 7.68858 1.94807 8.33365 1.94807 9.00033C1.94807 9.66701 2.04059 10.3121 2.2135 10.9234H5.25597C5.18859 10.3056 5.15317 9.66118 5.15317 9.00033C5.15317 8.33949 5.18859 7.69511 5.25597 7.07725ZM6.54625 10.9234C6.47421 10.3146 6.43522 9.66975 6.43522 9.00033C6.43522 8.33092 6.47421 7.6861 6.54625 7.07725H11.4524C11.5244 7.6861 11.5634 8.33092 11.5634 9.00033C11.5634 9.66975 11.5244 10.3146 11.4524 10.9234H6.54625ZM5.44849 12.2055H2.71693C3.54983 13.8348 4.99792 15.0974 6.75486 15.6869C6.5261 15.3483 6.32235 14.9632 6.14367 14.5459C5.85252 13.8659 5.61681 13.0742 5.44849 12.2055ZM11.2438 15.6869C13.0007 15.0974 14.4489 13.8348 15.2818 12.2055H12.5502C12.3818 13.0742 12.1461 13.8659 11.855 14.5459C11.6763 14.9632 11.4725 15.3483 11.2438 15.6869ZM11.2418 12.2055C11.0945 12.8946 10.9021 13.5141 10.6764 14.0413C10.4067 14.6712 10.1021 15.1399 9.7964 15.4418C9.49349 15.7411 9.22487 15.8451 8.99932 15.8451C8.77378 15.8451 8.50515 15.7411 8.20224 15.4418C7.89659 15.1399 7.59192 14.6712 7.32224 14.0413C7.0965 13.5141 6.90411 12.8946 6.7568 12.2055H11.2418ZM12.7427 10.9234H15.7852C15.9581 10.3121 16.0506 9.66701 16.0506 9.00033C16.0506 8.33365 15.9581 7.68858 15.7852 7.07725H12.7427C12.8101 7.69511 12.8455 8.33949 12.8455 9.00033C12.8455 9.66118 12.8101 10.3056 12.7427 10.9234ZM12.5502 5.7952H15.2818C14.4489 4.16586 13.0007 2.90326 11.2438 2.31375C11.4725 2.65235 11.6763 3.03743 11.855 3.45476C12.1461 4.13477 12.3818 4.92649 12.5502 5.7952ZM11.2418 5.7952H6.7568C6.90411 5.10603 7.0965 4.48661 7.32224 3.95937C7.59192 3.3295 7.89659 2.86077 8.20224 2.55882C8.50515 2.25959 8.77378 2.15555 8.99932 2.15555C9.22487 2.15555 9.49349 2.25959 9.7964 2.55882C10.1021 2.86077 10.4067 3.3295 10.6764 3.95937C10.9021 4.48661 11.0945 5.10603 11.2418 5.7952ZM8.99935 0.666992C4.39698 0.666992 0.666016 4.39795 0.666016 9.00033C0.666016 13.6027 4.39698 17.3337 8.99935 17.3337C13.6017 17.3337 17.3327 13.6027 17.3327 9.00033C17.3327 4.39795 13.6017 0.666992 8.99935 0.666992Z" fill="#FFFFFF"/>
</svg>
