<svg width="64" height="64" viewBox="0 0 64 64" fill="none" xmlns="http://www.w3.org/2000/svg">
<g id="Icon / Help_menu">
<path id="icon" fill-rule="evenodd" clip-rule="evenodd" d="M29.2077 52.208C26.1637 51.7874 23.2414 50.6826 20.6664 48.962C17.3116 46.7204 14.6969 43.5344 13.1529 39.8068C11.6088 36.0791 11.2049 31.9774 11.992 28.0202C12.7791 24.063 14.722 20.428 17.575 17.575C20.428 14.722 24.063 12.7791 28.0202 11.992C31.9774 11.2049 36.0791 11.6088 39.8068 13.1529C43.5344 14.6969 46.7204 17.3116 48.962 20.6664C50.6826 23.2414 51.7874 26.1637 52.208 29.2077C52.2536 29.5379 52.2912 29.8695 52.3207 30.2023C52.3287 30.2932 52.3427 30.3826 52.3623 30.4699C52.5564 31.334 53.2972 32 54.2 32C55.1941 32 56.007 31.193 55.9326 30.2017C55.9246 30.096 55.916 29.9905 55.9067 29.8851C55.8706 29.477 55.8241 29.0703 55.7673 28.6655C55.2673 25.1022 53.9702 21.6819 51.9553 18.6663C49.3181 14.7195 45.5698 11.6434 41.1844 9.8269C36.799 8.0104 31.9734 7.53512 27.3178 8.46116C22.6623 9.38721 18.3859 11.673 15.0294 15.0294C11.673 18.3859 9.38721 22.6623 8.46116 27.3178C7.53512 31.9734 8.0104 36.799 9.8269 41.1844C11.6434 45.5698 14.7195 49.3181 18.6663 51.9553C21.6819 53.9702 25.1022 55.2673 28.6655 55.7673C29.0703 55.8241 29.477 55.8706 29.8851 55.9067C29.9905 55.916 30.096 55.9246 30.2017 55.9326C31.193 56.007 32 55.1941 32 54.2C32 53.2972 31.334 52.5564 30.4699 52.3623C30.3826 52.3427 30.2932 52.3287 30.2023 52.3207C29.8695 52.2912 29.5379 52.2536 29.2077 52.208ZM31.8955 18.6667C29.7463 18.6696 27.686 19.5916 26.1663 21.2304C25.1375 22.3399 24.4133 23.7166 24.052 25.2094C23.7644 26.3972 24.7125 27.4089 25.8509 27.4089C26.9882 27.4089 27.8676 26.3511 28.4312 25.2858C29.1179 23.9876 30.4139 23.1111 31.8955 23.1111C34.0921 23.1111 35.8808 25.0378 35.8808 27.4089C35.8808 28.7378 34.8896 29.7022 33.375 31.0222C32.8802 31.4402 32.405 31.8845 31.9511 32.3533C29.8946 34.5689 29.8349 36.9222 29.8349 37.1844C29.8349 38.003 30.4502 38.6667 31.2093 38.6667H32.6517C33.3718 38.6667 33.9552 38.0365 33.9541 37.26C33.9561 37.2244 34.0221 36.4022 34.8628 35.4978C35.1503 35.1878 35.5072 34.8778 35.8807 34.5535L35.9653 34.48L35.9713 34.4747L35.9713 34.4747C37.5766 33.0725 40 30.9555 40 27.4089C39.9984 25.0912 39.1441 22.869 37.6246 21.2299C36.1051 19.5909 34.0446 18.669 31.8955 18.6667ZM29.8349 43.1111C29.8349 41.8838 30.7574 40.8889 31.8955 40.8889C33.0335 40.8889 33.9561 41.8838 33.9561 43.1111C33.9561 44.3384 33.0335 45.3333 31.8955 45.3333C30.7574 45.3333 29.8349 44.3384 29.8349 43.1111ZM42.6667 40.6667C41.5621 40.6667 40.6667 41.5621 40.6667 42.6667C40.6667 43.7712 41.5621 44.6667 42.6667 44.6667H58.6667C59.7712 44.6667 60.6667 43.7712 60.6667 42.6667C60.6667 41.5621 59.7712 40.6667 58.6667 40.6667H42.6667ZM40.6667 50.6667C40.6667 49.5621 41.5621 48.6667 42.6667 48.6667H58.6667C59.7712 48.6667 60.6667 49.5621 60.6667 50.6667C60.6667 51.7712 59.7712 52.6667 58.6667 52.6667H42.6667C41.5621 52.6667 40.6667 51.7712 40.6667 50.6667ZM42.6667 56.6667C41.5621 56.6667 40.6667 57.5621 40.6667 58.6667C40.6667 59.7712 41.5621 60.6667 42.6667 60.6667H58.6667C59.7712 60.6667 60.6667 59.7712 60.6667 58.6667C60.6667 57.5621 59.7712 56.6667 58.6667 56.6667H42.6667Z" fill="#2491E7"/>
</g>
</svg>
