<svg width="292" height="408" viewBox="0 0 292 408" fill="none" xmlns="http://www.w3.org/2000/svg">
<path d="M1 393.853V52C1 47.5817 4.58173 44 9 44H283C287.418 44 291 47.5817 291 52V394.127C291 398.87 285.09 401.04 282.02 397.426C280.542 395.685 278.085 395.14 276.01 396.093L270.782 398.493C268.695 399.451 266.298 399.467 264.199 398.536L258.229 395.886C256.208 394.99 253.907 394.969 251.871 395.83L245.338 398.59C243.217 399.486 240.811 399.424 238.738 398.42L233.861 396.059C231.791 395.056 229.389 394.993 227.269 395.886L220.699 398.653C218.658 399.512 216.353 399.487 214.331 398.584L208.439 395.952C206.346 395.017 203.953 395.024 201.867 395.972L196.287 398.507C194.197 399.456 191.8 399.462 189.706 398.523L183.914 395.927C181.86 395.006 179.514 394.993 177.451 395.89L171.389 398.526C169.239 399.461 166.787 399.406 164.681 398.374L160.18 396.17C158 395.103 155.453 395.083 153.257 396.116L148.336 398.431C146.219 399.427 143.772 399.446 141.64 398.483L136.127 395.995C133.998 395.034 131.556 395.052 129.441 396.043L124.338 398.435C122.22 399.428 119.773 399.444 117.642 398.479L112.097 395.968C110.01 395.023 107.617 395.018 105.525 395.955L99.8653 398.492C97.7297 399.449 95.2822 399.423 93.1675 398.421L88.251 396.091C86.1 395.071 83.6068 395.063 81.4488 396.067L76.3414 398.445C74.2209 399.432 71.7746 399.441 69.6464 398.471L64.2444 396.008C62.1196 395.039 59.6775 395.047 57.5591 396.03L52.3433 398.449C50.2216 399.433 47.7754 399.44 45.6486 398.467L40.3567 396.046C38.1912 395.055 35.6969 395.08 33.5521 396.115L28.8248 398.396C26.7152 399.414 24.2654 399.456 22.122 398.511L16.5626 396.061C14.4278 395.12 11.9296 395.666 10.3823 397.412C7.10711 401.108 1 398.792 1 393.853Z" fill="#F6F8FD" stroke="#E1E5F0" stroke-linejoin="round"/>
<rect x="33" y="89" width="92" height="10" rx="4" fill="#B2C0CD"/>
<rect x="33" y="112" width="101" height="10" rx="4" fill="#B2C0CD"/>
<rect x="33" y="158" width="108" height="10" rx="4" fill="#B2C0CD"/>
<rect x="33" y="182" width="69" height="10" rx="4" fill="#B2C0CD"/>
<rect x="33" y="204" width="85" height="10" rx="4" fill="#B2C0CD"/>
<rect x="33" y="250" width="91" height="10" rx="4" fill="#B2C0CD"/>
<rect x="33" y="273" width="101" height="10" rx="4" fill="#B2C0CD"/>
<rect x="213" y="250" width="46" height="10" rx="4" fill="#B2C0CD"/>
<rect x="213" y="204" width="46" height="10" rx="4" fill="#B2C0CD"/>
<rect x="213" y="182" width="46" height="10" rx="4" fill="#B2C0CD"/>
<rect x="213" y="158" width="46" height="10" rx="4" fill="#B2C0CD"/>
<rect x="213" y="112" width="46" height="10" rx="4" fill="#B2C0CD"/>
<rect x="213" y="89" width="46" height="10" rx="4" fill="#B2C0CD"/>
<rect x="213" y="273" width="46" height="10" rx="4" fill="#B2C0CD"/>
<rect x="33" y="313" width="135" height="43" rx="16" fill="#B2C0CD"/>
<g clip-path="url(#clip0_13659_37675)" filter="url(#filter0_d_13659_37675)">
<path d="M110 37L145.5 27L182 37L194.5 76.5L182 114L146.5 124.5L110 114L97 75L110 37Z" fill="#F6F8FD"/>
<path fill-rule="evenodd" clip-rule="evenodd" d="M191 76C191 100.853 170.853 121 146 121C121.147 121 101 100.853 101 76C101 51.1472 121.147 31 146 31C170.853 31 191 51.1472 191 76ZM200 76C200 105.823 175.823 130 146 130C116.177 130 92 105.823 92 76C92 46.1766 116.177 22 146 22C175.823 22 200 46.1766 200 76ZM173.182 64.182C174.939 62.4246 174.939 59.5754 173.182 57.818C171.425 56.0607 168.575 56.0607 166.818 57.818L140 84.636L128.182 72.818C126.425 71.0607 123.575 71.0607 121.818 72.818C120.061 74.5754 120.061 77.4246 121.818 79.182L136.818 94.182C138.575 95.9393 141.425 95.9393 143.182 94.182L173.182 64.182Z" fill="#00B440"/>
</g>
<defs>
<filter id="filter0_d_13659_37675" x="66" y="0" width="160" height="160" filterUnits="userSpaceOnUse" color-interpolation-filters="sRGB">
<feFlood flood-opacity="0" result="BackgroundImageFix"/>
<feColorMatrix in="SourceAlpha" type="matrix" values="0 0 0 0 0 0 0 0 0 0 0 0 0 0 0 0 0 0 127 0" result="hardAlpha"/>
<feOffset dy="4"/>
<feGaussianBlur stdDeviation="4"/>
<feColorMatrix type="matrix" values="0 0 0 0 0 0 0 0 0 0 0 0 0 0 0 0 0 0 0.16 0"/>
<feBlend mode="normal" in2="BackgroundImageFix" result="effect1_dropShadow_13659_37675"/>
<feBlend mode="normal" in="SourceGraphic" in2="effect1_dropShadow_13659_37675" result="shape"/>
</filter>
<clipPath id="clip0_13659_37675">
<rect width="144" height="144" fill="white" transform="translate(74 4)"/>
</clipPath>
</defs>
</svg>
