<svg width="32" height="32" viewBox="0 0 32 32" fill="none" xmlns="http://www.w3.org/2000/svg">
<rect width="32" height="32" rx="4" fill="#364E65"/>
<path fill-rule="evenodd" clip-rule="evenodd" d="M19.75 6.5625C19.3522 6.5625 18.9706 6.72053 18.6893 7.00184L16.2197 9.47152L7.43934 18.2518C7.30005 18.3911 7.18956 18.5565 7.11418 18.7385C7.0388 18.9205 7 19.1155 7 19.3125V23.5018C7 23.8997 7.15804 24.2812 7.43934 24.5625C7.72065 24.8438 8.10218 25.0018 8.5 25.0018H13C13.1989 25.0018 13.3897 24.9228 13.5303 24.7822L22.5283 15.7842C22.529 15.7835 22.5296 15.7829 22.5303 15.7822C22.531 15.7815 22.5317 15.7808 22.5324 15.7801L25 13.3125C25.2813 13.0312 25.4393 12.6497 25.4393 12.2518C25.4393 11.854 25.2813 11.4725 25 11.1912L20.8107 7.00184C20.5294 6.72053 20.1478 6.5625 19.75 6.5625ZM22 14.1912L23.9393 12.2518L19.75 8.0625L17.8107 10.0018L22 14.1912ZM16.75 11.0625L8.5 19.3125L7.97563 18.7881L8.5 19.3125L8.5 23.5018H12.6893L20.9393 15.2518L16.75 11.0625Z" fill="white"/>
</svg>
