<svg width="32" height="32" viewBox="0 0 32 32" fill="none" xmlns="http://www.w3.org/2000/svg">
<rect width="32" height="32" rx="4" fill="#364E65"/>
<path fill-rule="evenodd" clip-rule="evenodd" d="M7.75 14.875C7.75 10.94 10.94 7.75 14.875 7.75C18.81 7.75 22 10.94 22 14.875C22 18.81 18.81 22 14.875 22C10.94 22 7.75 18.81 7.75 14.875ZM14.875 6.25C10.1115 6.25 6.25 10.1115 6.25 14.875C6.25 19.6385 10.1115 23.5 14.875 23.5C16.9865 23.5 18.9209 22.7412 20.4202 21.4815L24.4691 25.5304C24.762 25.8233 25.2369 25.8233 25.5298 25.5304C25.8227 25.2375 25.8227 24.7627 25.5298 24.4698L21.4809 20.4209C22.741 18.9215 23.5 16.9869 23.5 14.875C23.5 10.1115 19.6385 6.25 14.875 6.25Z" fill="white"/>
</svg>
