<svg width="25" height="24" viewBox="0 0 25 24" fill="none" xmlns="http://www.w3.org/2000/svg">
<g id="Icon / Specification">
<path id="icon" fill-rule="evenodd" clip-rule="evenodd" d="M4.5 2.75C4.36193 2.75 4.25 2.86193 4.25 3V20C4.25 20.1125 4.26398 20.2427 4.29451 20.3581C4.31573 20.4382 4.33924 20.49 4.35645 20.5201C4.40845 20.5091 4.51564 20.4742 4.68863 20.3653C5.21483 20.034 5.51232 19.7313 5.821 19.4173C5.92963 19.3068 6.03964 19.1948 6.1615 19.0797C6.38982 18.8641 6.66021 18.6438 7.01921 18.4856C7.38123 18.326 7.78588 18.25 8.26471 18.25C8.90793 18.25 9.43645 18.555 9.84506 18.8858C10.2418 19.207 10.6078 19.6219 10.9234 19.9796L10.9447 20.0038C11.2861 20.3907 11.5743 20.7143 11.8634 20.9483C12.1497 21.18 12.3491 21.25 12.5 21.25C12.6509 21.25 12.8503 21.18 13.1366 20.9483C13.4257 20.7143 13.7139 20.3907 14.0553 20.0038L14.0766 19.9796C14.3922 19.6219 14.7582 19.207 15.1549 18.8858C15.5636 18.555 16.0921 18.25 16.7353 18.25C17.3537 18.25 17.8491 18.3599 18.2599 18.5833C18.6707 18.8067 18.9297 19.1082 19.1202 19.3601C19.1775 19.4358 19.2288 19.5059 19.2764 19.5709C19.5475 19.9412 19.6977 20.1463 20.137 20.2846C20.3719 20.3586 20.5064 20.3544 20.5685 20.3437C20.6219 20.3345 20.6411 20.3181 20.6528 20.3064C20.6713 20.2879 20.6975 20.2505 20.7192 20.1856C20.7411 20.1202 20.75 20.0512 20.75 20V3C20.75 2.86193 20.6381 2.75 20.5 2.75H4.5ZM2.75 3C2.75 2.0335 3.5335 1.25 4.5 1.25H20.5C21.4665 1.25 22.25 2.0335 22.25 3V20C22.25 20.3662 22.1409 20.941 21.7119 21.3686C21.2223 21.8567 20.5072 21.9737 19.6866 21.7154C18.7473 21.4197 18.3143 20.811 18.0343 20.4173C17.9948 20.3617 17.9583 20.3104 17.9239 20.2649C17.7835 20.0793 17.6786 19.9746 17.5434 19.9011C17.4083 19.8276 17.1757 19.75 16.7353 19.75C16.5844 19.75 16.385 19.82 16.0987 20.0517C15.8096 20.2857 15.5214 20.6093 15.18 20.9962L15.1587 21.0204C14.8431 21.3781 14.4771 21.793 14.0804 22.1142C13.6717 22.445 13.1432 22.75 12.5 22.75C11.8568 22.75 11.3283 22.445 10.9196 22.1142C10.5229 21.793 10.1569 21.3781 9.84134 21.0204L9.81997 20.9962C9.47857 20.6093 9.19038 20.2857 8.90126 20.0517C8.61502 19.82 8.4156 19.75 8.26471 19.75C7.94942 19.75 7.75847 19.799 7.62417 19.8582C7.48685 19.9187 7.36018 20.0109 7.19144 20.1703C7.12206 20.2358 7.04475 20.3148 6.9576 20.4038C6.63525 20.7331 6.17807 21.2001 5.48785 21.6347C5.1009 21.8783 4.69745 22.033 4.28906 22.0249C3.85075 22.0161 3.50124 21.8216 3.25834 21.5497C3.03284 21.2973 2.91151 20.9952 2.84446 20.7419C2.77572 20.4823 2.75 20.2208 2.75 20V3ZM7.51471 7C7.51471 6.58579 7.85049 6.25 8.26471 6.25H16.7353C17.1495 6.25 17.4853 6.58579 17.4853 7C17.4853 7.41421 17.1495 7.75 16.7353 7.75H8.26471C7.85049 7.75 7.51471 7.41421 7.51471 7ZM8.57353 11C8.57353 10.5858 8.90932 10.25 9.32353 10.25H15.6765C16.0907 10.25 16.4265 10.5858 16.4265 11C16.4265 11.4142 16.0907 11.75 15.6765 11.75H9.32353C8.90932 11.75 8.57353 11.4142 8.57353 11Z" fill="white"/>
</g>
</svg>
