<svg width="14" height="14" viewBox="0 0 14 14" fill="none" xmlns="http://www.w3.org/2000/svg">
<path fill-rule="evenodd" clip-rule="evenodd" d="M13.5303 1.53134C13.8232 1.23844 13.8232 0.763553 13.5303 0.470652C13.2374 0.177751 12.7625 0.177751 12.4696 0.470652L6.99972 5.94057L1.53035 0.470913C1.23746 0.178005 0.762582 0.178005 0.469689 0.470913C0.176797 0.763821 0.176797 1.23872 0.469689 1.53163L5.93904 7.00126L0.46937 12.4709C0.17647 12.7638 0.17647 13.2387 0.46937 13.5316C0.762269 13.8245 1.23715 13.8245 1.53005 13.5316L6.9997 8.06197L12.4697 13.5322C12.7625 13.8251 13.2374 13.8251 13.5303 13.5322C13.8232 13.2393 13.8232 12.7644 13.5303 12.4715L8.06038 7.00128L13.5303 1.53134Z" fill="#E1E5F0"/>
</svg>
