<svg width="18" height="18" viewBox="0 0 18 18" fill="none" xmlns="http://www.w3.org/2000/svg">
<path fill-rule="evenodd" clip-rule="evenodd" d="M9 2.25C5.27208 2.25 2.25 5.27208 2.25 9C2.25 10.6643 2.85234 12.1879 3.85092 13.3648C4.3392 12.6966 4.95489 12.127 5.66595 11.6909C5.91587 11.5377 6.17514 11.4024 6.44179 11.2856C5.63446 10.5755 5.125 9.53472 5.125 8.375C5.125 6.2349 6.8599 4.5 9 4.5C11.1401 4.5 12.875 6.2349 12.875 8.375C12.875 9.53473 12.3655 10.5755 11.5582 11.2856C11.8248 11.4024 12.0841 11.5377 12.334 11.6909C13.0451 12.127 13.6608 12.6966 14.1491 13.3648C15.1477 12.188 15.75 10.6643 15.75 9C15.75 5.27208 12.7279 2.25 9 2.25ZM14.5268 15.1252C16.1991 13.6153 17.25 11.4304 17.25 9C17.25 4.44365 13.5563 0.75 9 0.75C4.44365 0.75 0.75 4.44365 0.75 9C0.75 11.4294 1.80007 13.6135 3.47108 15.1233C3.47828 15.13 3.48563 15.1367 3.49313 15.1431C4.95353 16.4532 6.88371 17.25 9 17.25C11.1173 17.25 13.0483 16.4524 14.5089 15.1413C14.515 15.136 14.521 15.1306 14.5268 15.1252ZM13.0459 14.4036C12.6569 13.8259 12.1474 13.3361 11.5498 12.9696C10.7825 12.4991 9.90005 12.25 9 12.25C8.99999 12.25 8.99998 12.25 8.99997 12.25C8.09992 12.25 7.21741 12.4991 6.45016 12.9696C5.85256 13.3361 5.34304 13.8259 4.95412 14.4036C6.08156 15.2491 7.48228 15.75 9 15.75C10.5177 15.75 11.9184 15.2491 13.0459 14.4036ZM9 10.75C10.3117 10.75 11.375 9.68668 11.375 8.375C11.375 7.06332 10.3117 6 9 6C7.68832 6 6.625 7.06332 6.625 8.375C6.625 9.68668 7.68832 10.75 9 10.75Z" fill="#fff"/>
</svg>
