<svg width="20" height="20" viewBox="0 0 20 20" fill="none" xmlns="http://www.w3.org/2000/svg">
    <path id="icon" fill-rule="evenodd" clip-rule="evenodd" d="M15.4427 5.44297C15.6868 5.19888 15.6868 4.80313 15.4427 4.55904C15.1986 4.31495 14.8028 4.31495 14.5587 4.55904L10.0005 9.11732L5.44223 4.55905C5.19814 4.31496 4.80239 4.31496 4.5583 4.55905C4.31421 4.80314 4.31421 5.19889 4.5583 5.44298L9.11656 10.0012L4.55829 14.5595C4.3142 14.8036 4.3142 15.1994 4.55829 15.4435C4.80238 15.6875 5.19812 15.6875 5.44221 15.4435L10.0005 10.8852L14.5588 15.4435C14.8028 15.6876 15.1986 15.6876 15.4427 15.4435C15.6868 15.1994 15.6868 14.8036 15.4427 14.5595L10.8844 10.0012L15.4427 5.44297Z" fill="#B2C0CD"/>
</svg>
